# xmcd
#
# Track frame offsets: 
#        150
#        18960
#        40597
#        59900
#        79700
#        100632
#        116105
#        134975
#        153177
#        171230
#        191605
#        195327
#        212809
#        235117
#        254542
#        269250
#        291540
#
# Disc length: 4154 seconds
#
# Revision: 1
# Processed by: cddbd v1.5.2PL0 Copyright (c) Steve Scherf et al.
# Submitted via: ExactAudioCopy v1.0b1
#
DISCID=fa103811
DTITLE=草蜢 - Present
DYEAR=1995
DGENRE=Pop
TTITLE0=太平天國
TTITLE1=我們都是這樣失戀的
TTITLE2=愛亂篇
TTITLE3=世界會變得很美
TTITLE4=一加一加一的愛
TTITLE5=在家千日好
TTITLE6=原諒我是我
TTITLE7=隨時見你隨時愛你
TTITLE8=愛一次便夠
TTITLE9=情歌
TTITLE10=深淵感覺
TTITLE11=再會了空虛
TTITLE12=不安全感
TTITLE13=怎麼天生不是女人
TTITLE14=在一起
TTITLE15=斷句
TTITLE16=好戲在後頭
EXTD=
EXTT0=
EXTT1=
EXTT2=
EXTT3=
EXTT4=
EXTT5=
EXTT6=
EXTT7=
EXTT8=
EXTT9=
EXTT10=
EXTT11=
EXTT12=
EXTT13=
EXTT14=
EXTT15=
EXTT16=
PLAYORDER=
